<?xml version="1.0" encoding="UTF-8"?>
<svg width="18px" height="18px" viewBox="0 0 18 18" version="1.1" xmlns="http://www.w3.org/2000/svg" xmlns:xlink="http://www.w3.org/1999/xlink">
    <!-- Generator: sketchtool 61 (101010) - https://sketch.com -->
    <title>A385D830-5A6A-4A1E-81C0-79FC564A2ED0</title>
    <desc>Created with sketchtool.</desc>
    <g id="Customer" stroke="none" stroke-width="1" fill="none" fill-rule="evenodd">
        <g id="Cust-Request-Pick-Up" transform="translate(-10.000000, -41.000000)" fill="#CCCCCC" fill-rule="nonzero">
            <g id="Title-Bar" transform="translate(0.000000, 25.000000)">
                <g id="arrow-left">
                    <g transform="translate(10.000000, 16.000000)">
                        <path d="M10.3468363,16.1225922 L9.45497154,17.001035 C9.07733512,17.3729883 8.46668899,17.3729883 8.09306997,17.001035 L0.283227318,9.31268147 C-0.0944091061,8.94072819 -0.0944091061,8.33927181 0.283227318,7.97127548 L8.09306997,0.278964965 C8.47070639,-0.0929883215 9.08135253,-0.0929883215 9.45497154,0.278964965 L10.3468363,1.15740783 C10.7284901,1.53331807 10.7204553,2.14664529 10.3307667,2.51464163 L5.48978909,7.05722006 L17.0358219,7.05722006 C17.5701373,7.05722006 18,7.48061369 18,8.00688802 L18,9.27311198 C18,9.79938631 17.5701373,10.2227799 17.0358219,10.2227799 L5.48978909,10.2227799 L10.3307667,14.7653584 C10.7244727,15.1333547 10.7325075,15.7466819 10.3468363,16.1225922 Z" id="Path"></path>
                    </g>
                </g>
            </g>
        </g>
    </g>
</svg>